<?xml version="1.0" encoding="utf-8"?>
<!-- Generator: Adobe Illustrator 24.0.0, SVG Export Plug-In . SVG Version: 6.00 Build 0)  -->
<svg version="1.1" id="Layer_1" xmlns="http://www.w3.org/2000/svg" xmlns:xlink="http://www.w3.org/1999/xlink" x="0px" y="0px"
	 viewBox="0 0 334.21 82.57" style="enable-background:new 0 0 334.21 82.57;" xml:space="preserve">
<style type="text/css">
	.st0{fill:#00A0AF;}
</style>
<g>
	<path class="st0" d="M2.24,51.88c-0.31-0.33-0.58-0.75-0.97-1.03c-1.5-1.09-1.67-2.76-0.49-4.02c3.07-3.3,5.97-6.74,9.17-9.93
		c4.01-4,8.13-7.9,12.41-11.66c3.33-2.92,6.81-5.74,10.52-8.24c4.07-2.74,8.37-5.26,12.79-7.52c3.96-2.03,8.13-3.81,12.38-5.28
		C62,2.82,66.12,1.65,70.28,1c6.92-1.08,13.96-1.37,20.95-0.44c4.07,0.54,8.12,1.32,12.08,2.33c3.62,0.92,7.14,2.2,10.62,3.52
		c2.57,0.98,5.06,2.17,7.45,3.47c3.58,1.93,7.04,4.05,10.56,6.07c3.46,1.99,6.97,3.91,10.38,5.97c2.04,1.24,3.95,2.66,5.87,4.05
		c4.58,3.33,9.21,6.62,13.68,10.08c3.11,2.4,5.94,5.1,8.98,7.57c2.65,2.16,5.39,4.21,8.14,6.27c1.81,1.35,3.63,2.7,5.55,3.89
		c2.7,1.67,5.51,3.2,8.27,4.8c1.66,0.97,3.26,2.01,4.95,2.94c1.17,0.64,2.41,1.18,3.66,1.69c1.92,0.79,3.88,1.53,5.82,2.28
		c2.24,0.87,4.49,1.72,6.73,2.58c0.58,0.22,1.13,0.55,1.73,0.69c3.42,0.77,6.87,1.44,10.27,2.27c5.92,1.44,11.96,1.49,18.02,1.44
		c6.6-0.05,13.03-1.11,19.26-3.05c5.76-1.79,11.54-3.56,17.11-5.77c4.63-1.84,8.98-4.3,13.43-6.51c7.16-3.55,13.18-8.52,19.51-13.09
		c1.35-0.97,2.62-2.09,3.68-3.31c5.21-5.98,10.34-12.01,15.49-18.03c0.23-0.27,0.34-0.62,0.54-0.99c1.91,1.49,1.15,2.84,0.38,3.84
		c-4.08,5.29-8.07,10.64-12.52,15.66c-2.54,2.87-5.86,5.17-8.89,7.67c-4.16,3.42-8.26,6.9-12.6,10.12
		c-5.67,4.2-11.38,8.39-17.92,11.49c-4.49,2.13-8.95,4.33-13.54,6.26c-2.45,1.03-5.16,1.58-7.76,2.32
		c-2.42,0.69-4.81,1.51-7.28,1.99c-3.42,0.66-6.9,1.46-10.36,1.49c-8.25,0.06-16.51-0.08-24.73-0.62c-3.18-0.21-6.25-1.71-9.37-2.63
		c-0.3-0.09-0.58-0.26-0.89-0.33c-4.31-0.97-8.14-2.89-11.92-4.96c-3.5-1.92-7.13-3.67-10.62-5.61c-1.84-1.02-3.55-2.25-5.27-3.44
		c-3.07-2.13-6.21-4.19-9.13-6.48c-4.01-3.13-7.74-6.56-11.77-9.66c-5.34-4.11-10.82-8.06-16.3-12c-3.89-2.8-7.82-5.55-11.86-8.16
		c-2.53-1.63-5.29-2.97-7.95-4.43c-2.53-1.38-5.02-2.83-7.61-4.11c-1.97-0.97-4.06-1.76-6.12-2.57c-2.13-0.84-4.28-1.63-6.44-2.42
		c-0.88-0.32-1.76-0.64-2.66-0.87c-3.85-1-7.69-2.06-11.58-2.91c-2.03-0.45-4.17-0.73-6.26-0.7c-5.04,0.08-10.12,0.14-15.12,0.68
		c-3.31,0.36-6.53,1.49-9.76,2.37c-2.55,0.7-5.12,1.4-7.56,2.37c-3.25,1.29-6.42,2.76-9.53,4.3c-2.61,1.29-5.13,2.75-7.6,4.25
		c-2.01,1.22-4.03,2.47-5.8,3.95c-4.13,3.45-8.26,6.92-12.12,10.62C10.36,43.22,6.46,47.51,2.24,51.88z"/>
	<path class="st0" d="M140.07,50.87c-1.01-0.19-1.67-0.18-2.18-0.42c-3.86-1.79-8.06-2.55-12.15-3.7
		c-5.68-1.6-11.37-1.28-17.07-1.48c-2.67-0.09-5.41-0.01-8.03,0.42c-2.54,0.42-5.09,1.14-7.41,2.15c-3.2,1.39-6.35,2.99-9.26,4.85
		c-5.55,3.55-10.31,7.89-13.79,13.25c-1.58,2.43-3.61,3.07-6.78,2.91c-7.4-0.37-14.84-0.16-22.27-0.2
		c-10.17-0.07-20.35-0.16-30.52-0.25C9.8,68.39,9,68.26,7.72,68.15c1.65-2.13,2.92-4.05,4.48-5.74c2.98-3.25,5.94-6.53,9.23-9.5
		c4.01-3.62,8.26-7.04,12.61-10.32c3.02-2.28,6.24-4.41,9.63-6.19c4-2.1,8.18-4,12.47-5.55c9-3.25,18.41-4.73,28.12-4.23
		c4.69,0.24,9.41,0.27,13.95,1.76c2.89,0.95,5.97,1.42,8.88,2.34c2.1,0.66,4.07,1.7,6.09,2.59c1.47,0.65,2.98,1.25,4.37,2.03
		c4.18,2.33,8.39,4.63,12.44,7.13c2.94,1.82,5.7,3.9,8.45,5.96C139.06,48.89,139.34,49.75,140.07,50.87z"/>
	<path class="st0" d="M321.59,12.9c-0.47,0.81-0.87,1.86-1.59,2.68c-4.08,4.68-7.96,9.53-12.44,13.87
		c-4.52,4.37-9.42,8.49-14.6,12.21c-5.63,4.04-11.65,7.67-18.64,9.68c-3.79,1.09-7.69,1.99-11.26,3.52
		c-3.83,1.65-7.87,1.32-11.81,1.86c-2.82,0.39-5.71,0.82-8.53,0.64c-4.88-0.3-9.75-0.98-14.59-1.65c-2.43-0.34-4.85-0.89-7.18-1.59
		c-2.32-0.7-4.54-1.7-6.79-2.59c-1.69-0.67-3.33-1.44-5.04-2.04c-7.45-2.64-14.02-6.73-20.76-10.53c-0.45-0.25-0.58-0.99-0.86-1.5
		c0.64-0.12,1.35-0.47,1.89-0.32c3.75,1.03,7.42,2.34,11.21,3.22c5.87,1.36,11.85,2.36,17.93,1.89c7.34-0.56,14.24-2.37,20.57-6.05
		c7.05-4.1,12.46-9.48,16.68-15.96c1-1.54,2.11-3.03,2.97-4.63c1.02-1.91,2.59-2.68,4.87-2.68c13.18,0.01,26.36-0.03,39.54-0.04
		C309.22,12.9,315.27,12.9,321.59,12.9z"/>
</g>
</svg>
