<?xml version="1.0" standalone="no"?>
<!DOCTYPE svg PUBLIC "-//W3C//DTD SVG 20010904//EN"
 "http://www.w3.org/TR/2001/REC-SVG-20010904/DTD/svg10.dtd">
<svg version="1.0" xmlns="http://www.w3.org/2000/svg"
 width="670.000000pt" height="670.000000pt" viewBox="0 0 670.000000 670.000000"
 preserveAspectRatio="xMidYMid meet">
<metadata>
Created by potrace 1.14, written by Peter Selinger 2001-2017
</metadata>
<g transform="translate(0.000000,670.000000) scale(0.100000,-0.100000)"
fill="#000000" stroke="none">
<path d="M3139 6165 c-2 -2 -39 -7 -83 -10 -73 -7 -111 -12 -111 -15 0 -1 -18
-3 -40 -5 -34 -2 -197 -35 -260 -52 -11 -2 -27 -6 -35 -8 -8 -1 -22 -5 -30 -8
-8 -3 -49 -15 -90 -27 -41 -12 -110 -35 -152 -52 -43 -16 -79 -28 -80 -27 -2
2 -16 -4 -33 -13 -16 -10 -75 -38 -130 -64 -142 -66 -338 -181 -440 -256 -47
-35 -225 -178 -241 -193 -11 -11 -36 -34 -55 -51 -107 -96 -338 -358 -362
-411 -6 -13 -14 -23 -18 -23 -4 0 -20 -21 -35 -47 -15 -27 -30 -50 -33 -53
-22 -17 -229 -394 -237 -430 0 -3 -6 -18 -13 -35 -31 -73 -92 -240 -95 -261
-3 -13 -7 -27 -10 -32 -12 -20 -72 -269 -82 -342 -3 -19 -7 -46 -9 -60 -3 -14
-7 -41 -9 -60 -3 -19 -8 -62 -12 -95 -16 -125 -9 -540 12 -675 3 -19 7 -51 10
-70 6 -48 42 -218 55 -260 5 -19 12 -46 15 -60 7 -37 34 -123 45 -142 5 -10 9
-23 9 -29 0 -39 140 -354 216 -485 37 -65 146 -238 153 -244 3 -3 22 -27 41
-55 40 -58 43 -61 133 -169 71 -83 238 -252 317 -319 159 -135 503 -365 560
-374 8 -1 16 -7 18 -12 2 -6 7 -11 12 -11 5 0 43 -16 86 -36 90 -41 270 -114
284 -114 5 0 21 -5 37 -12 31 -12 50 -18 73 -22 8 -1 25 -8 38 -14 12 -7 22
-11 22 -8 0 3 30 -3 68 -14 59 -15 110 -27 162 -36 8 -2 26 -5 40 -8 14 -2 48
-7 75 -10 28 -4 61 -9 75 -12 140 -25 530 -25 725 2 101 13 268 46 355 69 52
14 105 28 118 30 30 7 201 69 282 102 85 35 322 156 380 193 25 17 52 33 60
37 19 10 173 115 180 122 3 3 25 22 50 41 61 47 59 45 110 87 64 53 300 291
300 302 0 5 4 11 9 13 9 3 84 93 126 152 11 16 25 33 30 40 21 24 95 137 95
145 0 5 4 11 8 13 5 2 23 30 42 63 18 33 38 63 44 67 6 4 8 8 3 8 -4 0 3 17
16 38 12 20 34 62 47 92 14 30 28 57 33 58 4 2 7 12 7 22 0 10 5 22 10 25 6 4
8 11 5 16 -4 5 -2 9 3 9 5 0 12 10 15 23 3 12 26 76 51 142 25 66 46 121 46
123 0 1 0 3 1 5 0 1 2 9 4 17 1 8 10 40 19 71 9 31 19 66 21 78 2 13 6 30 9
39 3 9 8 33 11 52 3 19 8 42 10 50 2 8 6 29 9 45 3 17 7 44 10 60 16 93 28
225 32 335 2 69 4 127 5 130 1 3 0 10 -1 15 -1 6 -3 57 -5 115 -3 58 -7 123
-10 145 -4 22 -6 47 -6 55 -1 8 -5 40 -10 70 -5 30 -11 73 -15 94 -3 22 -12
69 -20 105 -8 36 -17 77 -20 91 -3 14 -12 50 -22 80 -9 30 -17 58 -18 63 -1 4
-3 9 -4 12 -1 3 -4 10 -5 15 -1 6 -3 11 -5 13 -1 1 -3 9 -5 18 -5 27 -66 189
-97 259 -165 370 -370 666 -653 941 -44 42 -98 92 -121 111 -78 65 -119 98
-159 127 -22 17 -44 34 -50 38 -5 5 -48 33 -95 63 -47 30 -87 57 -90 60 -12
12 -290 155 -355 182 -101 42 -125 51 -195 74 -41 14 -83 30 -93 35 -11 6 -21
8 -24 5 -3 -3 -14 -1 -25 5 -11 6 -27 12 -36 14 -9 2 -53 12 -97 23 -44 12
-108 26 -142 31 -35 6 -75 14 -90 16 -16 3 -48 8 -73 11 -25 2 -61 7 -80 10
-40 7 -515 15 -521 9z"/>
</g>
</svg>
